<svg width="138" height="44" viewBox="0 0 138 44" fill="none" xmlns="http://www.w3.org/2000/svg">
<path d="M27.2489 36.3926V9.75255H33.0089V36.3926H27.2489Z" fill="#FCFCFC"/>
<path d="M82.7474 31.9286C83.6114 31.9286 84.3674 31.7126 85.0154 31.2806C85.6634 30.8486 86.1554 30.2606 86.4914 29.5166C86.8514 28.7486 87.0314 27.8486 87.0314 26.8166C87.0314 25.8086 86.8514 24.9206 86.4914 24.1526C86.1554 23.3846 85.6634 22.7966 85.0154 22.3886C84.3674 21.9806 83.6114 21.7766 82.7474 21.7766C81.8594 21.7766 81.0914 21.9806 80.4434 22.3886C79.7954 22.7966 79.2914 23.3846 78.9314 24.1526C78.5714 24.9206 78.3914 25.8086 78.3914 26.8166C78.3914 27.8486 78.5714 28.7486 78.9314 29.5166C79.2914 30.2606 79.7954 30.8486 80.4434 31.2806C81.0914 31.7126 81.8594 31.9286 82.7474 31.9286Z" fill="#0E0E0E"/>
<path fill-rule="evenodd" clip-rule="evenodd" d="M84.2594 36.7886C83.3954 36.7886 82.5674 36.6686 81.7754 36.4286C80.9834 36.1886 80.2634 35.8646 79.6154 35.4566C79.1093 35.1256 78.6664 34.7553 78.2866 34.3454L78.1394 36.3566H72.7754V9.75255H78.5714V19.2507C78.9105 18.8787 79.3065 18.5447 79.7594 18.2486C80.3834 17.8166 81.0674 17.4806 81.8114 17.2406C82.5554 17.0006 83.3234 16.8806 84.1154 16.8806C85.7714 16.8806 87.2354 17.3126 88.5074 18.1766C89.8034 19.0166 90.8234 20.1926 91.5674 21.7046C92.3114 23.1926 92.6834 24.8966 92.6834 26.8166C92.6834 28.7606 92.3114 30.4886 91.5674 32.0006C90.8474 33.4886 89.8514 34.6646 88.5794 35.5286C87.3074 36.3686 85.8674 36.7886 84.2594 36.7886ZM85.0154 31.2806C84.3674 31.7126 83.6114 31.9286 82.7474 31.9286C81.8594 31.9286 81.0914 31.7126 80.4434 31.2806C79.7954 30.8486 79.2914 30.2606 78.9314 29.5166C78.5714 28.7486 78.3914 27.8486 78.3914 26.8166C78.3914 25.8086 78.5714 24.9206 78.9314 24.1526C79.2914 23.3846 79.7954 22.7966 80.4434 22.3886C81.0914 21.9806 81.8594 21.7766 82.7474 21.7766C83.6114 21.7766 84.3674 21.9806 85.0154 22.3886C85.6634 22.7966 86.1554 23.3846 86.4914 24.1526C86.8514 24.9206 87.0314 25.8086 87.0314 26.8166C87.0314 27.8486 86.8514 28.7486 86.4914 29.5166C86.1554 30.2606 85.6634 30.8486 85.0154 31.2806Z" fill="url(#paint0_linear_604_28879)"/>
<path d="M124.662 27.6086L126.534 30.2366L126.908 30.8025L130.602 36.3926H137.442L130.52 26.6954L129.99 25.9526L127.938 23.1446L127.508 22.5008L124.014 17.2766H117.102L123.939 26.6208L124.662 27.6086Z" fill="url(#paint1_linear_604_28879)"/>
<path d="M127.938 23.1446L129.99 25.9526L130.52 26.6954L137.082 17.2766H130.278L127.508 22.5008L127.938 23.1446Z" fill="url(#paint2_linear_604_28879)"/>
<path d="M126.534 30.2366L124.662 27.6086L123.939 26.6208L116.922 36.3926H123.726L126.908 30.8025L126.534 30.2366Z" fill="url(#paint3_linear_604_28879)"/>
<path fill-rule="evenodd" clip-rule="evenodd" d="M2.772 22.5686V36.3926H3.96H5.688H8.568V22.5686H12.492V17.8166H8.568V16.8446C8.568 16.4126 8.628 16.0526 8.748 15.7646C8.892 15.4526 9.108 15.2246 9.396 15.0806C9.684 14.9366 10.044 14.8646 10.476 14.8646C10.716 14.8646 10.98 14.9126 11.268 15.0086C11.556 15.1046 11.856 15.2366 12.168 15.4046L13.824 11.1926C13.224 10.7126 12.54 10.3406 11.772 10.0766C11.004 9.81256 10.164 9.68055 9.252 9.68055C7.956 9.68055 6.816 9.98056 5.832 10.5806C4.872 11.1566 4.116 11.9486 3.564 12.9566C3.036 13.9646 2.772 15.0926 2.772 16.3406V17.8166H0V22.5686H2.772ZM2.772 22.5686H8.568V17.8166H2.772V22.5686ZM16.4611 17.216V36.332H22.2211V17.216H16.4611Z" fill="#FCFCFC"/>
<path d="M2.772 22.5686H8.568V17.8166H2.772V22.5686Z" fill="#FCFCFC"/>
<path d="M54.2745 21.2366L55.1745 21.3086C55.0594 20.9386 54.9303 20.5955 54.787 20.2791C54.7079 20.4032 54.633 20.5303 54.5625 20.6606L54.2745 21.2366Z" fill="#FCFCFC"/>
<path d="M38.1105 17.2766V36.3926H43.9065V24.9806C43.9065 24.5246 43.9905 24.1046 44.1585 23.7206C44.3265 23.3366 44.5545 23.0006 44.8425 22.7126C45.1545 22.4246 45.5145 22.1966 45.9225 22.0286C46.3545 21.8606 46.8225 21.7766 47.3265 21.7766C47.9025 21.7766 48.4065 21.9086 48.8385 22.1726C49.2705 22.4366 49.5945 22.8206 49.8105 23.3246C50.0265 23.8286 50.1345 24.4406 50.1345 25.1606V36.3926H55.9305V25.0166C55.9305 24.5366 56.0145 24.1046 56.1825 23.7206C56.3505 23.3366 56.5785 23.0006 56.8665 22.7126C57.1785 22.4246 57.5385 22.1966 57.9465 22.0286C58.3785 21.8606 58.8465 21.7766 59.3505 21.7766C59.9745 21.7766 60.4905 21.9086 60.8985 22.1726C61.3305 22.4126 61.6545 22.7846 61.8705 23.2886C62.0865 23.7926 62.1945 24.4286 62.1945 25.1966V36.3926H67.9905V24.7286C67.9905 23.0486 67.7265 21.6206 67.1985 20.4446C66.6945 19.2686 65.9385 18.3926 64.9305 17.8166C63.9225 17.2166 62.6625 16.9166 61.1505 16.9166C60.5505 16.9166 59.9265 17.0006 59.2785 17.1686C58.6305 17.3366 58.0065 17.5886 57.4065 17.9246C56.8065 18.2366 56.2545 18.6326 55.7505 19.1126C55.379 19.4655 55.0579 19.8543 54.787 20.2791C54.9303 20.5955 55.0594 20.9386 55.1745 21.3086L54.2745 21.2366L54.5625 20.6606C54.633 20.5303 54.7079 20.4032 54.787 20.2791C54.5121 19.6717 54.1852 19.1628 53.8065 18.7526C53.2305 18.1046 52.5585 17.6366 51.7905 17.3486C51.0225 17.0606 50.1705 16.9166 49.2345 16.9166C48.6105 16.9166 47.9865 17.0006 47.3625 17.1686C46.7625 17.3366 46.1745 17.5886 45.5985 17.9246C45.0465 18.2366 44.5425 18.6326 44.0865 19.1126C43.9515 19.2625 43.8236 19.4195 43.7027 19.5836L43.7625 20.7326L43.0065 20.7686C43.2045 20.3396 43.4366 19.9445 43.7027 19.5836L43.5825 17.2766H38.1105Z" fill="#FCFCFC"/>
<path d="M43.0065 20.7686L43.7625 20.7326L43.7027 19.5836C43.4366 19.9445 43.2045 20.3396 43.0065 20.7686Z" fill="#FCFCFC"/>
<mask id="path-2-inside-1_604_28879" fill="white">
<rect x="95.4419" y="17.998" width="19" height="19" rx="1"/>
</mask>
<rect x="95.4419" y="17.998" width="19" height="19" rx="1" stroke="url(#paint4_linear_604_28879)" stroke-width="11" mask="url(#path-2-inside-1_604_28879)"/>
<path d="M22.8419 11.1536C23.1086 11.3075 23.1086 11.6925 22.8419 11.8464L17.2919 15.0507C17.0252 15.2047 16.6919 15.0122 16.6919 14.7043V8.29571C16.6919 7.98779 17.0252 7.79534 17.2919 7.9493L22.8419 11.1536Z" fill="white"/>
<defs>
<linearGradient id="paint0_linear_604_28879" x1="21.6595" y1="40.5567" x2="29.4118" y2="-13.1102" gradientUnits="userSpaceOnUse">
<stop stop-color="#F3001D"/>
<stop offset="1" stop-color="#FF004D"/>
</linearGradient>
<linearGradient id="paint1_linear_604_28879" x1="21.6595" y1="40.5567" x2="29.4118" y2="-13.1102" gradientUnits="userSpaceOnUse">
<stop stop-color="#F3001D"/>
<stop offset="1" stop-color="#FF004D"/>
</linearGradient>
<linearGradient id="paint2_linear_604_28879" x1="21.6595" y1="40.5567" x2="29.4118" y2="-13.1102" gradientUnits="userSpaceOnUse">
<stop stop-color="#F3001D"/>
<stop offset="1" stop-color="#FF004D"/>
</linearGradient>
<linearGradient id="paint3_linear_604_28879" x1="21.6595" y1="40.5567" x2="29.4118" y2="-13.1102" gradientUnits="userSpaceOnUse">
<stop stop-color="#F3001D"/>
<stop offset="1" stop-color="#FF004D"/>
</linearGradient>
<linearGradient id="paint4_linear_604_28879" x1="98.4361" y1="39.4187" x2="114.722" y2="15.1566" gradientUnits="userSpaceOnUse">
<stop stop-color="#F3001D"/>
<stop offset="1" stop-color="#FF004D"/>
</linearGradient>
</defs>
</svg>
