<svg width="26" height="29" viewBox="0 0 26 29" fill="none" xmlns="http://www.w3.org/2000/svg">
<g id="Group 18422">
<g id="Group 18421">
<rect id="Rectangle 4171" width="2.18307" height="6.963" rx="1.09153" transform="matrix(0.0570052 -0.995268 1.00149 0.0566143 2.8584 8.77734)" fill="#D9D9D9"/>
<rect id="Rectangle 4172" width="2.18241" height="6.96874" rx="1.09121" transform="matrix(-0.976698 -0.22859 0.230037 -0.969997 4.81836 9.04956)" fill="#D9D9D9"/>
</g>
<path id="Ellipse 541" d="M4.4009 7.43476C6.04279 5.63017 8.20926 4.37572 10.6015 3.84595C12.9937 3.31616 15.4926 3.5375 17.7523 4.47909C20.012 5.42065 21.9204 7.03556 23.2146 9.09951C24.5088 11.1634 25.1253 13.5748 24.9798 16.0007C24.8343 18.4267 23.9339 20.7487 22.402 22.6457C20.8699 24.5429 18.7817 25.9216 16.4251 26.5902C14.0684 27.2587 11.5608 27.1838 9.24902 26.3757C6.93731 25.5677 4.93647 24.0669 3.52217 22.0819" stroke="#D9D9D9" stroke-width="2" stroke-linecap="round" stroke-linejoin="round"/>
</g>
</svg>
