<svg width="24" height="11" viewBox="0 0 24 11" fill="none" xmlns="http://www.w3.org/2000/svg">
<g id="Group 18480">
<g id="Rectangle 4099">
<rect x="13" width="11" height="2.5" rx="1.25" fill="#E2E2E2"/>
<rect x="13" width="11" height="2.5" rx="1.25" stroke="#E2E2E2"/>
</g>
<g id="Rectangle 4100">
<rect width="4" height="2.5" rx="1.25" transform="matrix(-1 0 0 1 11 0)" fill="#E2E2E2"/>
<rect width="4" height="2.5" rx="1.25" transform="matrix(-1 0 0 1 11 0)" stroke="#E2E2E2"/>
</g>
<g id="Rectangle 4101">
<rect width="5" height="2.5" rx="1.25" transform="matrix(-1 0 0 1 5 0)" fill="#E2E2E2"/>
<rect width="5" height="2.5" rx="1.25" transform="matrix(-1 0 0 1 5 0)" stroke="#E2E2E2"/>
</g>
<g id="Rectangle 4102">
<rect width="9" height="2.5" rx="1.25" transform="matrix(-1 0 0 1 9 4)" fill="#E2E2E2"/>
<rect width="9" height="2.5" rx="1.25" transform="matrix(-1 0 0 1 9 4)" stroke="#E2E2E2"/>
</g>
<g id="Rectangle 4105">
<rect width="6" height="2.5" rx="1.25" transform="matrix(-1 0 0 1 24 4)" fill="#E2E2E2"/>
<rect width="6" height="2.5" rx="1.25" transform="matrix(-1 0 0 1 24 4)" stroke="#E2E2E2"/>
</g>
<g id="Rectangle 4106">
<rect width="5" height="2.5" rx="1.25" transform="matrix(-1 0 0 1 16 4)" fill="#E2E2E2"/>
<rect width="5" height="2.5" rx="1.25" transform="matrix(-1 0 0 1 16 4)" stroke="#E2E2E2"/>
</g>
<g id="Rectangle 4103">
<rect width="8" height="2.5" rx="1.25" transform="matrix(-1 0 0 1 8 8)" fill="#E2E2E2"/>
<rect width="8" height="2.5" rx="1.25" transform="matrix(-1 0 0 1 8 8)" stroke="#E2E2E2"/>
</g>
<g id="Rectangle 4104">
<rect width="14" height="2.5" rx="1.25" transform="matrix(-1 0 0 1 24 8)" fill="#E2E2E2"/>
<rect width="14" height="2.5" rx="1.25" transform="matrix(-1 0 0 1 24 8)" stroke="#E2E2E2"/>
</g>
</g>
</svg>
