<svg width="30" height="30" viewBox="0 0 30 30" fill="none" xmlns="http://www.w3.org/2000/svg">
<g id="Frame 2133">
<g id="Hide">
<path id="Intersect" d="M27.3147 14.9143L28.1921 14.4345L27.3147 14.9143ZM27.3147 17.1457L28.1921 17.6255L27.3147 17.1457ZM2.28527 14.9141L3.16264 15.3939L2.28527 14.9141ZM2.28525 17.1455L1.40788 17.6253L2.28525 17.1455ZM25.4537 10.8283C25.0582 10.4427 24.4251 10.4507 24.0396 10.8462C23.654 11.2416 23.662 11.8747 24.0574 12.2603L25.4537 10.8283ZM11.4928 23.1482C10.9578 23.011 10.413 23.3335 10.2758 23.8685C10.1386 24.4034 10.4611 24.9483 10.9961 25.0855L11.4928 23.1482ZM18.5035 7.98175L18.2447 8.94767L18.5035 7.98175ZM7.7922 22.727L7.30034 23.5977L8.36834 21.9096L7.7922 22.727ZM3.16264 15.3939C5.41093 11.2829 9.77972 8.49657 14.8 8.49657V6.49657C9.02094 6.49657 3.99352 9.70643 1.40791 14.4343L3.16264 15.3939ZM26.4374 16.6659C24.1891 20.7769 19.8203 23.5632 14.8 23.5632V25.5632C20.5791 25.5632 25.6065 22.3534 28.1921 17.6255L26.4374 16.6659ZM26.4374 15.3941C26.6542 15.7906 26.6542 16.2694 26.4374 16.6659L28.1921 17.6255C28.736 16.6311 28.736 15.4289 28.1921 14.4345L26.4374 15.3941ZM1.40791 14.4343C0.86404 15.4287 0.864031 16.6309 1.40788 17.6253L3.16263 16.6657C2.94579 16.2692 2.94579 15.7904 3.16264 15.3939L1.40791 14.4343ZM24.0574 12.2603C24.9983 13.1777 25.8026 14.2334 26.4374 15.3941L28.1921 14.4345C27.4612 13.0979 26.5356 11.8832 25.4537 10.8283L24.0574 12.2603ZM14.8 23.5632C13.6569 23.5632 12.5489 23.419 11.4928 23.1482L10.9961 25.0855C12.2131 25.3976 13.4879 25.5632 14.8 25.5632V23.5632ZM14.8 8.49657C15.9928 8.49657 17.1474 8.65365 18.2447 8.94767L18.7623 7.01582C17.4977 6.67697 16.1691 6.49657 14.8 6.49657V8.49657ZM6.12341 20.3333C4.93037 19.3004 3.92439 18.0587 3.16263 16.6657L1.40788 17.6253C2.28507 19.2294 3.44257 20.6578 4.81436 21.8454L6.12341 20.3333ZM8.28407 21.8563C7.51257 21.4205 6.789 20.9095 6.12341 20.3333L4.81436 21.8454C5.57983 22.508 6.41227 23.096 7.30034 23.5977L8.28407 21.8563ZM4.89274 21.9067L7.21606 23.5443L8.36834 21.9096L6.04502 20.272L4.89274 21.9067ZM18.2447 8.94767C19.2696 9.2223 20.2456 9.61666 21.1567 10.115L22.1164 8.36024C21.0674 7.78655 19.9432 7.33224 18.7623 7.01582L18.2447 8.94767Z" fill="#565656"/>
<path id="Line" d="M23.7651 5L3.76514 25" stroke="#565656" stroke-width="2" stroke-linecap="round" stroke-linejoin="round"/>
<path id="Ellipse 44" d="M10.5332 16.03C10.5332 13.6735 12.4435 11.7633 14.7999 11.7633" stroke="#565656" stroke-width="2" stroke-linecap="round"/>
</g>
</g>
</svg>
