<svg width="21" height="21" viewBox="0 0 21 21" fill="none" xmlns="http://www.w3.org/2000/svg">
<g id="Group 249">
<path id="Union" fill-rule="evenodd" clip-rule="evenodd" d="M5.75 7C6.44036 7 7 6.44036 7 5.75V1.25C7 0.559644 6.44036 0 5.75 0C5.05964 0 4.5 0.559644 4.5 1.25V4.5H1.25C0.559644 4.5 0 5.05964 0 5.75C0 6.44036 0.559644 7 1.25 7H5.75Z" fill="#E2E2E2"/>
<path id="Union_2" fill-rule="evenodd" clip-rule="evenodd" d="M5.75 14C6.44036 14 7 14.5596 7 15.25V19.75C7 20.4404 6.44036 21 5.75 21C5.05964 21 4.5 20.4404 4.5 19.75V16.5H1.25C0.559644 16.5 0 15.9404 0 15.25C0 14.5596 0.559644 14 1.25 14H5.75Z" fill="#E2E2E2"/>
<path id="Union_3" fill-rule="evenodd" clip-rule="evenodd" d="M15.25 14C14.5596 14 14 14.5596 14 15.25V19.75C14 20.4404 14.5596 21 15.25 21C15.9404 21 16.5 20.4404 16.5 19.75V16.5H19.75C20.4404 16.5 21 15.9404 21 15.25C21 14.5596 20.4404 14 19.75 14H15.25Z" fill="#E2E2E2"/>
<path id="Union_4" fill-rule="evenodd" clip-rule="evenodd" d="M15.25 7C14.5596 7 14 6.44036 14 5.75V1.25C14 0.559644 14.5596 0 15.25 0C15.9404 0 16.5 0.559644 16.5 1.25V4.5H19.75C20.4404 4.5 21 5.05964 21 5.75C21 6.44036 20.4404 7 19.75 7H15.25Z" fill="#E2E2E2"/>
</g>
</svg>
