<svg width="24" height="24" viewBox="0 0 24 24" fill="none" xmlns="http://www.w3.org/2000/svg">
<g id="Frame 2032">
<g id="Users">
<g id="Group 222">
<circle id="Ellipse 33" cx="3.57494" cy="3.57494" r="3.57494" transform="matrix(-1 0 0 1 15.7988 4)" stroke="#424242" stroke-width="1.6"/>
<path id="Rectangle 2" d="M5.9668 16.4541C5.9668 15.6852 6.45018 14.9993 7.17432 14.7406V14.7406C10.4391 13.5747 14.0068 13.5747 17.2716 14.7406V14.7406C17.9957 14.9993 18.4791 15.6852 18.4791 16.4541V17.6298C18.4791 18.6911 17.5392 19.5063 16.4886 19.3562L16.0413 19.2923C13.5086 18.9305 10.9373 18.9305 8.40457 19.2923L7.95733 19.3562C6.90674 19.5063 5.9668 18.6911 5.9668 17.6298V16.4541Z" stroke="#424242" stroke-width="1.6"/>
</g>
<g id="Group 223">
<path id="Ellipse 33_2" d="M17.5855 11.2489C19.1368 11.2489 20.3944 9.99129 20.3944 8.43999C20.3944 6.88868 19.1368 5.6311 17.5855 5.6311" stroke="#424242" stroke-width="1.6" stroke-linecap="round"/>
<path id="Rectangle 2_2" d="M20.6622 17.6571L20.9374 17.6964C21.7629 17.8144 22.5014 17.1738 22.5014 16.34V15.4162C22.5014 14.8121 22.1216 14.2731 21.5526 14.0699C20.9851 13.8672 20.4059 13.7094 19.8202 13.5964" stroke="#424242" stroke-width="1.6" stroke-linecap="round"/>
</g>
<g id="Group 224">
<path id="Ellipse 33_3" d="M6.41606 11.2489C4.86476 11.2489 3.60718 9.99129 3.60718 8.43999C3.60718 6.88868 4.86476 5.6311 6.41606 5.6311" stroke="#424242" stroke-width="1.6" stroke-linecap="round"/>
<path id="Rectangle 2_3" d="M3.3394 17.6571L3.06418 17.6964C2.23872 17.8144 1.50019 17.1738 1.50019 16.34V15.4162C1.50019 14.8121 1.87999 14.2731 2.44895 14.0699C3.0165 13.8672 3.5957 13.7094 4.1814 13.5964" stroke="#424242" stroke-width="1.6" stroke-linecap="round"/>
</g>
</g>
</g>
</svg>
