<svg width="26" height="25" viewBox="0 0 26 25" fill="none" xmlns="http://www.w3.org/2000/svg">
<g id="Home">
<path id="Rectangle 74" d="M1.5 10.951C1.5 9.71966 2.06711 8.55695 3.03742 7.79889L10.5574 1.92389C12.0045 0.793351 14.0355 0.793351 15.4826 1.92389L23.0026 7.79889C23.9729 8.55695 24.54 9.71966 24.54 10.951V20C24.54 22.2091 22.7491 24 20.54 24H17.6579C17.1056 24 16.6579 23.5523 16.6579 23V18.8C16.6579 17.6954 15.7625 16.8 14.6579 16.8H11.3821C10.2775 16.8 9.38211 17.6954 9.38211 18.8V23C9.38211 23.5523 8.93439 24 8.38211 24H5.5C3.29086 24 1.5 22.2091 1.5 20L1.5 10.951Z" stroke="#565656" stroke-width="2"/>
</g>
</svg>
