<svg width="52" height="53" viewBox="0 0 52 53" fill="none" xmlns="http://www.w3.org/2000/svg">
<g id="Social Media / Instagram">
<g id="Logo 2">
<path id="Vector" d="M21.8458 26.4998C21.8458 23.8861 23.9253 21.7668 26.4913 21.7668C29.0572 21.7668 31.1378 23.8861 31.1378 26.4998C31.1378 29.1135 29.0572 31.2329 26.4913 31.2329C23.9253 31.2329 21.8458 29.1135 21.8458 26.4998ZM19.334 26.4998C19.334 30.5264 22.5383 33.7903 26.4913 33.7903C30.4442 33.7903 33.6485 30.5264 33.6485 26.4998C33.6485 22.4732 30.4442 19.2093 26.4913 19.2093C22.5383 19.2093 19.334 22.4732 19.334 26.4998ZM32.2592 18.9202C32.2591 19.2572 32.3571 19.5866 32.5408 19.8669C32.7244 20.1471 32.9856 20.3656 33.2912 20.4947C33.5968 20.6238 33.933 20.6577 34.2575 20.5921C34.582 20.5264 34.8801 20.3643 35.1141 20.1261C35.3481 19.8879 35.5076 19.5844 35.5722 19.2539C35.6369 18.9235 35.6039 18.5809 35.4774 18.2695C35.351 17.9581 35.1367 17.692 34.8617 17.5046C34.5867 17.3173 34.2634 17.2173 33.9325 17.2171H33.9319C33.4884 17.2173 33.0632 17.3968 32.7496 17.7161C32.436 18.0355 32.2596 18.4685 32.2592 18.9202ZM20.8601 38.0567C19.5011 37.9937 18.7625 37.7631 18.2717 37.5683C17.6209 37.3102 17.1566 37.0029 16.6684 36.5063C16.1802 36.0097 15.878 35.5372 15.6258 34.8743C15.4344 34.3745 15.2081 33.6219 15.1463 32.2376C15.0787 30.7411 15.0652 30.2915 15.0652 26.4999C15.0652 22.7084 15.0798 22.26 15.1463 20.7622C15.2082 19.378 15.4362 18.6268 15.6258 18.1256C15.8791 17.4627 16.1809 16.9897 16.6684 16.4925C17.1559 15.9952 17.6198 15.6874 18.2717 15.4304C18.7623 15.2355 19.5011 15.005 20.8601 14.942C22.3293 14.8732 22.7707 14.8595 26.4913 14.8595C30.2118 14.8595 30.6536 14.8743 32.1241 14.942C33.4831 15.0051 34.2205 15.2373 34.7125 15.4304C35.3633 15.6874 35.8276 15.9959 36.3158 16.4925C36.804 16.989 37.1051 17.4627 37.3584 18.1256C37.5498 18.6253 37.7761 19.378 37.8379 20.7622C37.9055 22.26 37.919 22.7084 37.919 26.4999C37.919 30.2915 37.9055 30.7398 37.8379 32.2376C37.776 33.6219 37.5485 34.3743 37.3584 34.8743C37.1051 35.5372 36.8033 36.0101 36.3158 36.5063C35.8283 37.0024 35.3633 37.3102 34.7125 37.5683C34.2219 37.7632 33.4831 37.9938 32.1241 38.0567C30.6549 38.1255 30.2135 38.1393 26.4913 38.1393C22.769 38.1393 22.3289 38.1255 20.8601 38.0567ZM20.7447 12.3877C19.2608 12.4566 18.2469 12.6962 17.3614 13.0472C16.4444 13.4097 15.6681 13.8959 14.8923 14.6849C14.1165 15.4738 13.6404 16.2659 13.2846 17.2C12.94 18.1025 12.7047 19.1348 12.6371 20.6462C12.5685 22.1601 12.5527 22.6441 12.5527 26.4998C12.5527 30.3556 12.5685 30.8395 12.6371 32.3534C12.7047 33.865 12.94 34.8971 13.2846 35.7997C13.6404 36.7332 14.1166 37.5261 14.8923 38.3148C15.6679 39.1034 16.4444 39.589 17.3614 39.9524C18.2486 40.3034 19.2608 40.5431 20.7447 40.6119C22.2316 40.6807 22.706 40.6979 26.4913 40.6979C30.2765 40.6979 30.7517 40.6819 32.2378 40.6119C33.7218 40.5431 34.7351 40.3034 35.6211 39.9524C36.5376 39.589 37.3145 39.1037 38.0902 38.3148C38.866 37.5258 39.3411 36.7332 39.698 35.7997C40.0425 34.8971 40.2789 33.8649 40.3454 32.3534C40.413 30.8384 40.4287 30.3556 40.4287 26.4998C40.4287 22.6441 40.413 22.1601 40.3454 20.6462C40.2778 19.1347 40.0425 18.1019 39.698 17.2C39.3411 16.2664 38.8648 15.4751 38.0902 14.6849C37.3157 13.8947 36.5376 13.4097 35.6222 13.0472C34.7351 12.6962 33.7217 12.4554 32.239 12.3877C30.7528 12.3189 30.2776 12.3018 26.4924 12.3018C22.7071 12.3018 22.2316 12.3178 20.7447 12.3877Z" fill="#878787"/>
<path id="Vector_2" d="M21.8458 26.4998C21.8458 23.8861 23.9253 21.7668 26.4913 21.7668C29.0572 21.7668 31.1378 23.8861 31.1378 26.4998C31.1378 29.1135 29.0572 31.2329 26.4913 31.2329C23.9253 31.2329 21.8458 29.1135 21.8458 26.4998ZM19.334 26.4998C19.334 30.5264 22.5383 33.7903 26.4913 33.7903C30.4442 33.7903 33.6485 30.5264 33.6485 26.4998C33.6485 22.4732 30.4442 19.2093 26.4913 19.2093C22.5383 19.2093 19.334 22.4732 19.334 26.4998ZM32.2592 18.9202C32.2591 19.2572 32.3571 19.5866 32.5408 19.8669C32.7244 20.1471 32.9856 20.3656 33.2912 20.4947C33.5968 20.6238 33.933 20.6577 34.2575 20.5921C34.582 20.5264 34.8801 20.3643 35.1141 20.1261C35.3481 19.8879 35.5076 19.5844 35.5722 19.2539C35.6369 18.9235 35.6039 18.5809 35.4774 18.2695C35.351 17.9581 35.1367 17.692 34.8617 17.5046C34.5867 17.3173 34.2634 17.2173 33.9325 17.2171H33.9319C33.4884 17.2173 33.0632 17.3968 32.7496 17.7161C32.436 18.0355 32.2596 18.4685 32.2592 18.9202ZM20.8601 38.0567C19.5011 37.9937 18.7625 37.7631 18.2717 37.5683C17.6209 37.3102 17.1566 37.0029 16.6684 36.5063C16.1802 36.0097 15.878 35.5372 15.6258 34.8743C15.4344 34.3745 15.2081 33.6219 15.1463 32.2376C15.0787 30.7411 15.0652 30.2915 15.0652 26.4999C15.0652 22.7084 15.0798 22.26 15.1463 20.7622C15.2082 19.378 15.4362 18.6268 15.6258 18.1256C15.8791 17.4627 16.1809 16.9897 16.6684 16.4925C17.1559 15.9952 17.6198 15.6874 18.2717 15.4304C18.7623 15.2355 19.5011 15.005 20.8601 14.942C22.3293 14.8732 22.7707 14.8595 26.4913 14.8595C30.2118 14.8595 30.6536 14.8743 32.1241 14.942C33.4831 15.0051 34.2205 15.2373 34.7125 15.4304C35.3633 15.6874 35.8276 15.9959 36.3158 16.4925C36.804 16.989 37.1051 17.4627 37.3584 18.1256C37.5498 18.6253 37.7761 19.378 37.8379 20.7622C37.9055 22.26 37.919 22.7084 37.919 26.4999C37.919 30.2915 37.9055 30.7398 37.8379 32.2376C37.776 33.6219 37.5485 34.3743 37.3584 34.8743C37.1051 35.5372 36.8033 36.0101 36.3158 36.5063C35.8283 37.0024 35.3633 37.3102 34.7125 37.5683C34.2219 37.7632 33.4831 37.9938 32.1241 38.0567C30.6549 38.1255 30.2135 38.1393 26.4913 38.1393C22.769 38.1393 22.3289 38.1255 20.8601 38.0567ZM20.7447 12.3877C19.2608 12.4566 18.2469 12.6962 17.3614 13.0472C16.4444 13.4097 15.6681 13.8959 14.8923 14.6849C14.1165 15.4738 13.6404 16.2659 13.2846 17.2C12.94 18.1025 12.7047 19.1348 12.6371 20.6462C12.5685 22.1601 12.5527 22.6441 12.5527 26.4998C12.5527 30.3556 12.5685 30.8395 12.6371 32.3534C12.7047 33.865 12.94 34.8971 13.2846 35.7997C13.6404 36.7332 14.1166 37.5261 14.8923 38.3148C15.6679 39.1034 16.4444 39.589 17.3614 39.9524C18.2486 40.3034 19.2608 40.5431 20.7447 40.6119C22.2316 40.6807 22.706 40.6979 26.4913 40.6979C30.2765 40.6979 30.7517 40.6819 32.2378 40.6119C33.7218 40.5431 34.7351 40.3034 35.6211 39.9524C36.5376 39.589 37.3145 39.1037 38.0902 38.3148C38.866 37.5258 39.3411 36.7332 39.698 35.7997C40.0425 34.8971 40.2789 33.8649 40.3454 32.3534C40.413 30.8384 40.4287 30.3556 40.4287 26.4998C40.4287 22.6441 40.413 22.1601 40.3454 20.6462C40.2778 19.1347 40.0425 18.1019 39.698 17.2C39.3411 16.2664 38.8648 15.4751 38.0902 14.6849C37.3157 13.8947 36.5376 13.4097 35.6222 13.0472C34.7351 12.6962 33.7217 12.4554 32.239 12.3877C30.7528 12.3189 30.2776 12.3018 26.4924 12.3018C22.7071 12.3018 22.2316 12.3178 20.7447 12.3877Z" fill="#878787"/>
</g>
</g>
</svg>
