<svg width="26" height="29" viewBox="0 0 26 29" fill="none" xmlns="http://www.w3.org/2000/svg">
<g id="Group 18422">
<g id="Group 18421">
<rect id="Rectangle 4171" width="2.18307" height="6.963" rx="1.09153" transform="matrix(-0.0570052 -0.995268 -1.00149 0.0566143 23.1416 8.77734)" fill="#D9D9D9"/>
<rect id="Rectangle 4172" width="2.18241" height="6.96874" rx="1.09121" transform="matrix(0.976698 -0.22859 -0.230037 -0.969997 21.1816 9.04956)" fill="#D9D9D9"/>
</g>
<path id="Ellipse 541" d="M21.5989 7.43476C19.957 5.63017 17.7905 4.37572 15.3983 3.84595C13.006 3.31616 10.5072 3.5375 8.24742 4.47909C5.98771 5.42065 4.07937 7.03556 2.78515 9.09951C1.491 11.1634 0.874457 13.5748 1.01993 16.0007C1.16541 18.4267 2.06581 20.7487 3.59779 22.6457C5.12984 24.5429 7.2181 25.9216 9.57469 26.5902C11.9313 27.2587 14.439 27.1838 16.7507 26.3757C19.0624 25.5677 21.0633 24.0669 22.4776 22.0819" stroke="#D9D9D9" stroke-width="2" stroke-linecap="round" stroke-linejoin="round"/>
</g>
</svg>
