<svg width="21" height="21" viewBox="0 0 21 21" fill="none" xmlns="http://www.w3.org/2000/svg">
<g id="Group 249">
<path id="Union" fill-rule="evenodd" clip-rule="evenodd" d="M1.25 0C0.559644 0 0 0.559644 0 1.25V5.75C0 6.44036 0.559644 7 1.25 7C1.94036 7 2.5 6.44036 2.5 5.75V2.5H5.75C6.44036 2.5 7 1.94036 7 1.25C7 0.559644 6.44036 0 5.75 0H1.25Z" fill="#E2E2E2"/>
<path id="Union_2" fill-rule="evenodd" clip-rule="evenodd" d="M1.25 21C0.559644 21 0 20.4404 0 19.75V15.25C0 14.5596 0.559644 14 1.25 14C1.94036 14 2.5 14.5596 2.5 15.25V18.5H5.75C6.44036 18.5 7 19.0596 7 19.75C7 20.4404 6.44036 21 5.75 21H1.25Z" fill="#E2E2E2"/>
<path id="Union_3" fill-rule="evenodd" clip-rule="evenodd" d="M19.75 21C20.4404 21 21 20.4404 21 19.75V15.25C21 14.5596 20.4404 14 19.75 14C19.0596 14 18.5 14.5596 18.5 15.25V18.5H15.25C14.5596 18.5 14 19.0596 14 19.75C14 20.4404 14.5596 21 15.25 21H19.75Z" fill="#E2E2E2"/>
<path id="Union_4" fill-rule="evenodd" clip-rule="evenodd" d="M19.75 0C20.4404 0 21 0.559644 21 1.25V5.75C21 6.44036 20.4404 7 19.75 7C19.0596 7 18.5 6.44036 18.5 5.75V2.5H15.25C14.5596 2.5 14 1.94036 14 1.25C14 0.559644 14.5596 0 15.25 0H19.75Z" fill="#E2E2E2"/>
</g>
</svg>
