<svg width="25" height="26" viewBox="0 0 25 26" fill="none" xmlns="http://www.w3.org/2000/svg">
<g id="Settings">
<circle id="Ellipse 33" cx="3.55614" cy="3.55614" r="3.55614" transform="matrix(-1 0 0 1 15.8282 9.29773)" stroke="#E2E2E2" stroke-width="2"/>
<path id="Subtract" d="M17.6064 4.48205L18.1064 3.61603V3.61603L17.6064 4.48205ZM17.6064 21.2251L18.1064 22.0911V22.0911L17.6064 21.2251ZM6.93795 21.2251L7.43795 20.3591L6.93795 21.2251ZM6.93795 4.48205L6.43795 3.61603V3.61603L6.93795 4.48205ZM8.64669 2.10133L9.62711 2.29826L8.64669 2.10133ZM1.39803 10.0325L0.788642 10.8254L1.39803 10.0325ZM4.24313 20.8689L3.98533 19.9027L4.24313 20.8689ZM3.33485 20.6411L2.58118 21.2984L3.33485 20.6411ZM9.25422 24.32L9.5081 23.3528L9.25422 24.32ZM15.8976 23.6062L14.9171 23.4093L15.8976 23.6062ZM15.2901 24.3199L15.544 25.2872L15.2901 24.3199ZM20.3011 20.8689L20.0433 21.8351L20.3011 20.8689ZM23.5057 9.05994L24.4532 8.74008L23.5057 9.05994ZM23.1461 10.0325L23.7555 10.8254L23.1461 10.0325ZM1.0384 16.6476L0.0909331 16.9675L1.0384 16.6476ZM21.209 5.06614L21.9627 4.40887L21.209 5.06614ZM3.33516 5.06611L4.08881 5.72339L3.33516 5.06611ZM23.5057 16.6476L24.4532 16.9675L23.5057 16.6476ZM15.8976 2.10136L14.9172 2.2983L15.8976 2.10136ZM14.9172 2.2983C15.1656 3.53497 15.9259 4.66654 17.1064 5.34808L18.1064 3.61603C17.4443 3.23378 17.0181 2.60163 16.878 1.90441L14.9172 2.2983ZM17.1064 5.34808C18.1941 5.97606 19.4351 6.10424 20.5586 5.8046L20.0431 3.87215C19.4105 4.04088 18.717 3.96856 18.1064 3.61603L17.1064 5.34808ZM24.4532 8.74008C23.9092 7.12881 23.0551 5.66149 21.9627 4.40887L20.4554 5.72342C21.3789 6.78237 22.0997 8.02131 22.5583 9.3798L24.4532 8.74008ZM22.7551 12.8538C22.7551 12.0283 23.1453 11.2944 23.7555 10.8254L22.5367 9.23964C21.4552 10.0709 20.7551 11.3808 20.7551 12.8538H22.7551ZM23.7555 14.8822C23.1453 14.4132 22.7551 13.6793 22.7551 12.8538H20.7551C20.7551 14.3268 21.4552 15.6367 22.5367 16.4679L23.7555 14.8822ZM21.963 21.2983C23.0553 20.0458 23.9093 18.5786 24.4532 16.9675L22.5583 16.3278C22.0997 17.6861 21.3791 18.925 20.4557 19.9838L21.963 21.2983ZM18.1064 22.0911C18.717 21.7386 19.4107 21.6663 20.0433 21.8351L20.5588 19.9027C19.4353 19.6029 18.1941 19.7311 17.1064 20.3591L18.1064 22.0911ZM16.878 23.803C17.018 23.1057 17.4442 22.4734 18.1064 22.0911L17.1064 20.3591C15.9258 21.0407 15.1654 22.1725 14.9171 23.4093L16.878 23.803ZM12.2721 25.7076C13.4015 25.7076 14.4983 25.5617 15.544 25.2872L15.0362 23.3527C14.1548 23.5841 13.2286 23.7076 12.2721 23.7076V25.7076ZM9.00033 25.2872C10.046 25.5617 11.1428 25.7076 12.2721 25.7076V23.7076C11.3156 23.7076 10.3895 23.5841 9.5081 23.3528L9.00033 25.2872ZM6.43795 22.0911C7.1001 22.4734 7.52632 23.1057 7.66632 23.803L9.6272 23.4093C9.37888 22.1725 8.61856 21.0407 7.43795 20.3591L6.43795 22.0911ZM4.50093 21.8351C5.1336 21.6663 5.82726 21.7386 6.43795 22.0911L7.43795 20.3591C6.35011 19.731 5.10889 19.6029 3.98533 19.9027L4.50093 21.8351ZM0.0909331 16.9675C0.634846 18.5786 1.48887 20.0458 2.58118 21.2984L4.08852 19.9839C3.16511 18.925 2.44444 17.6861 1.98586 16.3278L0.0909331 16.9675ZM1.78904 12.8538C1.78904 13.6793 1.39881 14.4132 0.788642 14.8822L2.00741 16.4679C3.08892 15.6367 3.78904 14.3268 3.78904 12.8538H1.78904ZM0.788642 10.8254C1.39881 11.2944 1.78904 12.0283 1.78904 12.8538H3.78904C3.78904 11.3808 3.08892 10.0709 2.00741 9.23964L0.788642 10.8254ZM2.58152 4.40882C1.48905 5.66146 0.634902 7.12879 0.0909336 8.74008L1.98586 9.3798C2.44449 8.0213 3.16526 6.78234 4.08881 5.72339L2.58152 4.40882ZM6.43795 3.61603C5.82731 3.96858 5.13372 4.04088 4.50109 3.87213L3.98562 5.80456C5.1091 6.10425 6.35021 5.97608 7.43795 5.34808L6.43795 3.61603ZM7.66627 1.90439C7.52622 2.60162 7.10002 3.23377 6.43795 3.61603L7.43795 5.34808C8.61841 4.66653 9.3787 3.53495 9.62711 2.29826L7.66627 1.90439ZM12.2721 0C11.1427 0 10.046 0.145887 9.00024 0.420378L9.50802 2.35484C10.3894 2.12348 11.3156 2 12.2721 2V0ZM15.5441 0.420429C14.4983 0.145905 13.4015 0 12.2721 0V2C13.2286 2 14.1548 2.1235 15.0363 2.35489L15.5441 0.420429ZM9.62711 2.29826C9.63179 2.27496 9.63882 2.27109 9.62879 2.28343C9.62274 2.29087 9.6101 2.30431 9.58876 2.31865C9.56672 2.33347 9.53911 2.34668 9.50802 2.35484L9.00024 0.420378C8.19944 0.630581 7.78389 1.31883 7.66627 1.90439L9.62711 2.29826ZM2.00741 9.23964C1.9984 9.23271 1.9917 9.22564 1.98771 9.2205C1.98367 9.21529 1.98518 9.21569 1.98855 9.22414C1.99205 9.23293 1.99824 9.25236 1.9997 9.28156C2.00121 9.31201 1.99714 9.34639 1.98586 9.3798L0.0909336 8.74008C-0.208923 9.62828 0.264268 10.4224 0.788642 10.8254L2.00741 9.23964ZM3.98533 19.9027C3.96252 19.9088 3.95601 19.9042 3.97148 19.9077C3.9808 19.9098 3.99836 19.9152 4.02058 19.9279C4.04351 19.941 4.06749 19.9598 4.08852 19.9839L2.58118 21.2984C3.12434 21.9212 3.924 21.989 4.50093 21.8351L3.98533 19.9027ZM9.5081 23.3528C9.5392 23.3609 9.56681 23.3741 9.58885 23.389C9.61019 23.4033 9.62283 23.4167 9.62888 23.4242C9.63891 23.4365 9.63187 23.4326 9.6272 23.4093L7.66632 23.803C7.7839 24.3887 8.19944 25.077 9.00033 25.2872L9.5081 23.3528ZM14.9171 23.4093C14.9124 23.4326 14.9054 23.4365 14.9154 23.4241C14.9215 23.4167 14.9341 23.4033 14.9555 23.3889C14.9775 23.3741 15.0051 23.3609 15.0362 23.3527L15.544 25.2872C16.3449 25.077 16.7604 24.3886 16.878 23.803L14.9171 23.4093ZM20.4557 19.9838C20.4767 19.9597 20.5007 19.9409 20.5236 19.9278C20.5458 19.9151 20.5634 19.9098 20.5727 19.9077C20.5882 19.9042 20.5817 19.9087 20.5588 19.9027L20.0433 21.8351C20.6202 21.989 21.4199 21.9212 21.963 21.2983L20.4557 19.9838ZM22.5583 9.3798C22.547 9.34639 22.5429 9.31201 22.5445 9.28156C22.5459 9.25236 22.5521 9.23293 22.5556 9.22414C22.559 9.21569 22.5605 9.21529 22.5564 9.2205C22.5524 9.22564 22.5457 9.23271 22.5367 9.23964L23.7555 10.8254C24.2799 10.4224 24.7531 9.62828 24.4532 8.74008L22.5583 9.3798ZM1.98586 16.3278C1.99714 16.3612 2.00121 16.3956 1.99969 16.426C1.99824 16.4552 1.99205 16.4747 1.98855 16.4834C1.98518 16.4919 1.98367 16.4923 1.98771 16.4871C1.9917 16.4819 1.99839 16.4749 2.00741 16.4679L0.788642 14.8822C0.264268 15.2852 -0.208924 16.0793 0.0909331 16.9675L1.98586 16.3278ZM20.5586 5.8046C20.5814 5.79851 20.5879 5.80308 20.5724 5.79957C20.5631 5.79745 20.5455 5.79211 20.5233 5.77941C20.5004 5.76631 20.4764 5.74754 20.4554 5.72342L21.9627 4.40887C21.4196 3.78613 20.62 3.71829 20.0431 3.87215L20.5586 5.8046ZM4.08881 5.72339C4.06778 5.7475 4.0438 5.76627 4.02087 5.77938C3.99865 5.79207 3.9811 5.79741 3.97177 5.79953C3.9563 5.80305 3.96281 5.79848 3.98562 5.80456L4.50109 3.87213C3.92421 3.71825 3.12464 3.78607 2.58152 4.40882L4.08881 5.72339ZM22.5367 16.4679C22.5457 16.4749 22.5524 16.4819 22.5564 16.4871C22.5605 16.4923 22.559 16.4919 22.5556 16.4834C22.5521 16.4747 22.5459 16.4552 22.5445 16.426C22.5429 16.3956 22.547 16.3612 22.5583 16.3278L24.4532 16.9675C24.7531 16.0793 24.2799 15.2852 23.7555 14.8822L22.5367 16.4679ZM16.878 1.90441C16.7604 1.31887 16.3449 0.63064 15.5441 0.420429L15.0363 2.35489C15.0052 2.34673 14.9776 2.33351 14.9556 2.3187C14.9342 2.30435 14.9216 2.29092 14.9155 2.28347C14.9055 2.27113 14.9125 2.275 14.9172 2.2983L16.878 1.90441Z" fill="#E2E2E2"/>
</g>
</svg>
