<svg width="36" height="36" viewBox="0 0 36 36" fill="none" xmlns="http://www.w3.org/2000/svg">
<g id="Frame 1794">
<g id="Volume up">
<path id="Union" d="M20.527 10.3706C20.527 8.65827 18.5154 7.73775 17.2196 8.85712L12.974 12.5247C12.6107 12.8385 12.1466 13.0112 11.6666 13.0112L9.49998 13.0112C8.11928 13.0112 7 14.1305 7 15.5112V19.8595C7 21.2402 8.11929 22.3595 9.5 22.3595H11.6666C12.1467 22.3595 12.6107 22.5322 12.974 22.846L17.2196 26.5135C18.5154 27.6329 20.527 26.7124 20.527 25V17.6853V10.3706Z" stroke="#E2E2E2" stroke-width="2"/>
<path id="Rectangle 2" d="M23.9089 21.0677C24.6168 20.1257 25.0362 18.9548 25.0362 17.686C25.0362 16.4171 24.6168 15.2462 23.9089 14.3042" stroke="#E2E2E2" stroke-width="2" stroke-linecap="round"/>
<path id="Rectangle 3" d="M26.1633 24.4496C27.579 22.5656 28.4178 20.2238 28.4178 17.6861C28.4178 15.1484 27.579 12.8066 26.1633 10.9226" stroke="#E2E2E2" stroke-width="2" stroke-linecap="round"/>
</g>
</g>
</svg>
