<svg width="52" height="53" viewBox="0 0 52 53" fill="none" xmlns="http://www.w3.org/2000/svg">
<g id="Social Media / Twitter">
<g id="Capa 2">
<g id="ELEMENTS">
<path id="Vector" d="M39.3955 18.1885C38.5531 18.558 37.6675 18.8153 36.7605 18.954C37.1845 18.8799 37.8084 18.102 38.0568 17.7872C38.4341 17.3122 38.7216 16.77 38.9048 16.1881C38.9048 16.1449 38.9472 16.0832 38.9048 16.0523C38.8835 16.0404 38.8595 16.0342 38.8352 16.0342C38.8108 16.0342 38.7869 16.0404 38.7655 16.0523C37.7807 16.5959 36.7326 17.0107 35.646 17.2871C35.6081 17.2989 35.5678 17.2999 35.5294 17.2901C35.4909 17.2803 35.4559 17.2601 35.4279 17.2315C35.3433 17.1289 35.2523 17.0319 35.1553 16.9413C34.7121 16.5366 34.2093 16.2054 33.6652 15.9597C32.9308 15.6526 32.1375 15.5196 31.3452 15.5707C30.5765 15.6202 29.826 15.8304 29.1404 16.1881C28.4652 16.5653 27.8718 17.0777 27.3958 17.6945C26.8952 18.3294 26.5337 19.0662 26.3358 19.8554C26.1726 20.606 26.1541 21.3819 26.2813 22.1397C26.2813 22.2694 26.2813 22.2879 26.1722 22.2694C21.8533 21.6211 18.3098 20.0591 15.4144 16.7067C15.2872 16.5586 15.2205 16.5586 15.1176 16.7067C13.8576 18.6577 14.4694 21.7446 16.0443 23.2695C16.2563 23.4733 16.4744 23.6708 16.7046 23.8561C15.9825 23.8038 15.278 23.6044 14.633 23.2695C14.5118 23.1893 14.4452 23.2325 14.4391 23.3807C14.422 23.5861 14.422 23.7926 14.4391 23.9981C14.5655 24.9825 14.9462 25.9151 15.5422 26.7005C16.1382 27.4859 16.9281 28.0958 17.8313 28.4679C18.0514 28.564 18.2808 28.6365 18.5157 28.684C17.8473 28.8181 17.1617 28.839 16.4865 28.7457C16.3411 28.7149 16.2866 28.7951 16.3411 28.9371C17.2316 31.4067 19.1639 32.1599 20.5813 32.5797C20.7751 32.6106 20.969 32.6106 21.187 32.66C21.187 32.66 21.187 32.66 21.1507 32.697C20.7327 33.4749 19.0427 33.9997 18.2674 34.2713C16.8522 34.7895 15.3433 34.9875 13.8455 34.8517C13.6093 34.8146 13.5548 34.8208 13.4942 34.8517C13.4336 34.8826 13.4942 34.9505 13.5608 35.0122C13.8637 35.2159 14.1665 35.395 14.4815 35.5679C15.4192 36.0891 16.4106 36.5033 17.4375 36.8026C22.7559 38.2967 28.7406 37.1978 32.7324 33.1539C35.8701 29.9805 36.9725 25.6033 36.9725 21.2198C36.9725 21.0531 37.1724 20.9543 37.2875 20.8679C38.0813 20.2375 38.7812 19.493 39.3652 18.6577C39.4663 18.5332 39.5182 18.3746 39.5106 18.2132C39.5106 18.1205 39.5106 18.1391 39.3955 18.1885Z" fill="#878787"/>
</g>
</g>
</g>
</svg>
